<svg width="512" height="512" viewBox="0 0 512 512" fill="none" xmlns="http://www.w3.org/2000/svg">
<rect width="512" height="512" rx="256" fill="white"/>
<path d="M256 67.9648L426.667 161.497V350.503L256 444.035L85.3335 350.503V161.497L256 67.9648Z" fill="#506CFF"/>
<path d="M332.895 271.59V285.773L349.942 276.431V305.609L332.895 314.951V329.135L384.374 301.142V330.32L308.046 371.931V328.57L293.335 336.632V307.454L308.046 299.392V256.03H308.447L333.756 242.16L384.374 214.419V243.597L332.895 271.59Z" fill="white"/>
<path d="M220.864 135.431L256.002 154.688L291.139 135.431L317.759 150.02L282.622 169.277L317.759 188.533L291.139 203.122L256.002 183.866L220.864 203.122L194.244 188.533L229.381 169.277L194.244 150.02L220.864 135.431Z" fill="white"/>
<path d="M127.629 236.1L226.132 290.083V319.261L127.629 265.278V236.1Z" fill="white"/>
<path d="M127.629 279.461L226.132 333.445V362.623L127.629 308.639V279.461Z" fill="white"/>
<path d="M426.667 161.497L256 67.9648L85.3335 161.497M426.667 161.497V350.503L256 444.035M426.667 161.497L256 255.029M256 444.035L85.3335 350.503V161.497M256 444.035V255.029M85.3335 161.497L256 255.029" stroke="white" stroke-width="10.6667" stroke-linecap="square"/>
</svg>
